<svg width="24" height="24" viewBox="0 0 24 24" fill="none" xmlns="http://www.w3.org/2000/svg">
<path d="M21.9014 18.3352L18.0191 3.84629C17.9158 3.46224 17.6644 3.13487 17.3199 2.93602C16.9755 2.73717 16.5663 2.68309 16.182 2.78565L13.2842 3.56211C13.2524 3.57063 13.222 3.58172 13.1912 3.59215C13.0517 3.40832 12.8716 3.25922 12.665 3.15651C12.4583 3.0538 12.2308 3.00026 12 3.00007H9C8.73644 3.00014 8.47763 3.07018 8.25 3.20303C8.02237 3.07018 7.76356 3.00014 7.5 3.00007H4.5C4.10231 3.00052 3.72105 3.1587 3.43984 3.43991C3.15864 3.72111 3.00045 4.10238 3 4.50007V19.5001C3.00045 19.8978 3.15864 20.279 3.43984 20.5602C3.72105 20.8414 4.10231 20.9996 4.5 21.0001H7.5C7.76356 21 8.02237 20.93 8.25 20.7971C8.47763 20.93 8.73644 21 9 21.0001H12C12.3977 20.9996 12.779 20.8414 13.0602 20.5602C13.3414 20.279 13.4995 19.8978 13.5 19.5001V10.1628L16.1059 19.8881C16.1568 20.0784 16.2447 20.2568 16.3645 20.4132C16.4844 20.5695 16.634 20.7007 16.8046 20.7992C16.9752 20.8977 17.1635 20.9616 17.3589 20.9873C17.5542 21.013 17.7527 20.9999 17.943 20.9488L20.8408 20.1723C21.2248 20.069 21.5521 19.8175 21.751 19.4731C21.9498 19.1287 22.0039 18.7195 21.9014 18.3352ZM16.5702 4.23447L17.1527 6.40782L14.2548 7.1843L13.6725 5.01102L16.5702 4.23447ZM12 4.50007L12.0007 15.7501H9V4.50007H12ZM7.5 4.50007V6.75007H4.5V4.50007H7.5ZM12 19.5001H9V17.2501H12.0008L12.0009 19.5001H12ZM20.4525 18.7234L17.5547 19.4999L16.9724 17.3266L19.871 16.5499L20.4534 18.7232L20.4525 18.7234Z" fill="#CD6F6F"/>
</svg>
