<svg width="24" height="24" viewBox="0 0 24 24" fill="none" xmlns="http://www.w3.org/2000/svg">
<path d="M9 19.5C9.59653 19.5007 10.1684 19.738 10.5902 20.1598C11.012 20.5816 11.2493 21.1535 11.25 21.75C11.25 21.9489 11.329 22.1397 11.4697 22.2803C11.6103 22.421 11.8011 22.5 12 22.5C12.1989 22.5 12.3897 22.421 12.5303 22.2803C12.671 22.1397 12.75 21.9489 12.75 21.75C12.7507 21.1535 12.988 20.5816 13.4098 20.1598C13.8316 19.738 14.4035 19.5007 15 19.5H21C21.3977 19.4995 21.779 19.3414 22.0602 19.0602C22.3414 18.779 22.4995 18.3977 22.5 18V6C22.4995 5.60231 22.3414 5.22105 22.0602 4.93984C21.779 4.65864 21.3977 4.50045 21 4.5H16.5C15.5058 4.50113 14.5526 4.89658 13.8496 5.5996C13.1466 6.30261 12.7511 7.25578 12.75 8.25V15.75C12.75 15.9489 12.671 16.1397 12.5303 16.2803C12.3897 16.421 12.1989 16.5 12 16.5C11.8011 16.5 11.6103 16.421 11.4697 16.2803C11.329 16.1397 11.25 15.9489 11.25 15.75V8.25C11.2489 7.25578 10.8534 6.30261 10.1504 5.5996C9.44739 4.89658 8.49422 4.50113 7.5 4.5H3C2.60231 4.50045 2.22105 4.65864 1.93984 4.93984C1.65864 5.22105 1.50045 5.60231 1.5 6V18C1.50045 18.3977 1.65864 18.779 1.93984 19.0602C2.22105 19.3414 2.60231 19.4995 3 19.5H9Z" fill="#DB3F3F"/>
</svg>
