<svg width="24" height="24" viewBox="0 0 24 24" fill="none" xmlns="http://www.w3.org/2000/svg">
<path d="M20.25 4.49927H3.75001C3.3523 4.49966 2.971 4.65782 2.68978 4.93904C2.40856 5.22026 2.2504 5.60156 2.25001 5.99927V20.8894C2.24902 21.1755 2.32998 21.4559 2.48332 21.6974C2.63666 21.9389 2.85597 22.1315 3.1153 22.2523C3.37463 22.3731 3.66313 22.4171 3.94668 22.3791C4.23023 22.3411 4.49697 22.2227 4.71534 22.0378L7.69264 19.5344L20.25 19.4993C20.6477 19.4989 21.029 19.3407 21.3102 19.0595C21.5915 18.7783 21.7496 18.397 21.75 17.9993V5.99927C21.7496 5.60156 21.5915 5.22026 21.3102 4.93904C21.029 4.65782 20.6477 4.49966 20.25 4.49927ZM7.49991 13.125C7.27741 13.125 7.0599 13.059 6.8749 12.9354C6.68989 12.8118 6.5457 12.6361 6.46055 12.4305C6.3754 12.225 6.35312 11.9988 6.39653 11.7805C6.43994 11.5623 6.54709 11.3618 6.70442 11.2045C6.86175 11.0472 7.06221 10.94 7.28044 10.8966C7.49867 10.8532 7.72487 10.8755 7.93043 10.9606C8.136 11.0458 8.3117 11.19 8.43532 11.375C8.55893 11.56 8.62491 11.7775 8.62491 12C8.62491 12.2984 8.50639 12.5845 8.29541 12.7955C8.08443 13.0065 7.79828 13.125 7.49991 13.125ZM11.9999 13.125C11.7774 13.125 11.5599 13.059 11.3749 12.9354C11.1899 12.8118 11.0457 12.6361 10.9605 12.4305C10.8754 12.225 10.8531 11.9988 10.8965 11.7805C10.9399 11.5623 11.0471 11.3618 11.2044 11.2045C11.3618 11.0472 11.5622 10.94 11.7804 10.8966C11.9987 10.8532 12.2249 10.8755 12.4304 10.9606C12.636 11.0458 12.8117 11.19 12.9353 11.375C13.0589 11.56 13.1249 11.7775 13.1249 12C13.1249 12.2984 13.0064 12.5845 12.7954 12.7955C12.5844 13.0065 12.2983 13.125 11.9999 13.125ZM16.4999 13.125C16.2774 13.125 16.0599 13.059 15.8749 12.9354C15.6899 12.8118 15.5457 12.6361 15.4605 12.4305C15.3754 12.225 15.3531 11.9988 15.3965 11.7805C15.4399 11.5623 15.5471 11.3618 15.7044 11.2045C15.8618 11.0472 16.0622 10.94 16.2804 10.8966C16.4987 10.8532 16.7249 10.8755 16.9304 10.9606C17.136 11.0458 17.3117 11.19 17.4353 11.375C17.5589 11.56 17.6249 11.7775 17.6249 12C17.6249 12.2984 17.5064 12.5845 17.2954 12.7955C17.0844 13.0065 16.7983 13.125 16.4999 13.125Z" fill="#E58054"/>
</svg>
