<svg width="24" height="24" viewBox="0 0 24 24" fill="none" xmlns="http://www.w3.org/2000/svg">
<path d="M20.0242 7.71327L14.7806 2.46963C14.7731 2.46213 14.765 2.45554 14.7572 2.44839C14.7471 2.4391 14.7372 2.42949 14.7266 2.42075C14.7195 2.41498 14.712 2.40994 14.7048 2.4044C14.6925 2.39502 14.6804 2.3855 14.6675 2.37685C14.6617 2.37295 14.6555 2.36971 14.6497 2.366C14.6348 2.35661 14.6199 2.34728 14.6044 2.3389C14.6002 2.33666 14.5958 2.33492 14.5915 2.33276C14.574 2.3237 14.5562 2.315 14.5379 2.30736C14.535 2.30617 14.532 2.30529 14.5291 2.30415C14.5094 2.29623 14.4894 2.28882 14.4689 2.28259C14.4659 2.28167 14.4628 2.28112 14.4599 2.28025C14.4395 2.27435 14.419 2.2689 14.3979 2.26469C14.3912 2.26336 14.3843 2.26277 14.3776 2.26163C14.3602 2.2586 14.3429 2.25554 14.3252 2.2538C14.3003 2.25127 14.2753 2.25 14.2502 2.25H5.24951C4.85183 2.25045 4.47056 2.40864 4.18935 2.68984C3.90815 2.97105 3.74997 3.35231 3.74951 3.75V20.25C3.74997 20.6477 3.90815 21.029 4.18935 21.3102C4.47056 21.5914 4.85183 21.7495 5.24951 21.75H18.7502C19.1479 21.7495 19.5292 21.5914 19.8104 21.3102C20.0916 21.029 20.2498 20.6477 20.2502 20.25V8.26451C20.2503 8.25961 20.251 8.2549 20.251 8.25C20.2511 8.14991 20.231 8.05083 20.1921 7.95863C20.1531 7.86643 20.0961 7.78299 20.0242 7.71327ZM15.0002 16.5H9.00024C8.80133 16.5 8.61057 16.421 8.46991 16.2803C8.32926 16.1397 8.25024 15.9489 8.25024 15.75C8.25024 15.5511 8.32926 15.3603 8.46991 15.2197C8.61057 15.079 8.80133 15 9.00024 15H15.0002C15.1992 15 15.3899 15.079 15.5306 15.2197C15.6712 15.3603 15.7502 15.5511 15.7502 15.75C15.7502 15.9489 15.6712 16.1397 15.5306 16.2803C15.3899 16.421 15.1992 16.5 15.0002 16.5ZM15.0002 13.5H9.00024C8.80133 13.5 8.61057 13.421 8.46991 13.2803C8.32926 13.1397 8.25024 12.9489 8.25024 12.75C8.25024 12.5511 8.32926 12.3603 8.46991 12.2197C8.61057 12.079 8.80133 12 9.00024 12H15.0002C15.1992 12 15.3899 12.079 15.5306 12.2197C15.6712 12.3603 15.7502 12.5511 15.7502 12.75C15.7502 12.9489 15.6712 13.1397 15.5306 13.2803C15.3899 13.421 15.1992 13.5 15.0002 13.5ZM14.2502 8.25V4.06064L18.4395 8.25H14.2502Z" fill="#3399FF"/>
</svg>
