<svg width="24" height="24" viewBox="0 0 24 24" fill="none" xmlns="http://www.w3.org/2000/svg">
<path d="M20.2495 6.74988H12.25L9.64844 4.79944C9.38907 4.60572 9.07421 4.50069 8.75049 4.49988H3.74951C3.35181 4.50027 2.9705 4.65843 2.68929 4.93965C2.40807 5.22087 2.2499 5.60217 2.24951 5.99988V18.7499C2.2499 19.1476 2.40807 19.5289 2.68929 19.8101C2.9705 20.0913 3.35181 20.2495 3.74951 20.2499H20.333C20.7085 20.2494 21.0685 20.0999 21.334 19.8344C21.5996 19.5689 21.749 19.2089 21.7495 18.8334V8.24988C21.7491 7.85217 21.591 7.47087 21.3097 7.18965C21.0285 6.90843 20.6472 6.75027 20.2495 6.74988Z" fill="#716571"/>
</svg>
