<svg width="24" height="24" viewBox="0 0 24 24" fill="none" xmlns="http://www.w3.org/2000/svg">
<path d="M16.5 21.7501C16.5 21.949 16.421 22.1398 16.2803 22.2804C16.1397 22.4211 15.9489 22.5001 15.75 22.5001H8.24999C8.05108 22.5001 7.86031 22.4211 7.71966 22.2804C7.57901 22.1398 7.49999 21.949 7.49999 21.7501C7.49999 21.5512 7.57901 21.3604 7.71966 21.2198C7.86031 21.0791 8.05108 21.0001 8.24999 21.0001H15.75C15.9489 21.0001 16.1397 21.0791 16.2803 21.2198C16.421 21.3604 16.5 21.5512 16.5 21.7501ZM20.25 9.7501C20.2532 11.0004 19.9707 12.2349 19.4241 13.3593C18.8775 14.4838 18.0812 15.4685 17.096 16.2383C16.9121 16.3793 16.7628 16.5605 16.6595 16.7679C16.5562 16.9754 16.5017 17.2037 16.5 17.4354V18.0001C16.4995 18.3978 16.3414 18.779 16.0601 19.0603C15.7789 19.3415 15.3977 19.4996 15 19.5001H8.99999C8.60231 19.4996 8.22104 19.3415 7.93983 19.0603C7.65863 18.779 7.50045 18.3978 7.49999 18.0001V17.4347C7.49968 17.2054 7.44689 16.9792 7.34565 16.7735C7.24441 16.5678 7.09741 16.388 6.91593 16.2479C5.93363 15.4829 5.13816 14.5046 4.5897 13.387C4.04123 12.2693 3.75413 11.0415 3.75013 9.79651C3.72545 5.32819 7.33725 1.60749 11.8015 1.50238C12.9013 1.47594 13.9952 1.66971 15.019 2.07231C16.0428 2.47491 16.9758 3.0782 17.763 3.84669C18.5502 4.61517 19.1757 5.53334 19.6028 6.54716C20.0299 7.56098 20.25 8.64998 20.25 9.7501ZM15.5303 9.96973C15.3896 9.82913 15.1989 9.75014 15 9.75014C14.8011 9.75014 14.6103 9.82913 14.4697 9.96973L12 12.4395L9.53031 9.96973C9.38965 9.82908 9.19887 9.75007 8.99996 9.75008C8.80104 9.75009 8.61027 9.82911 8.46963 9.96978C8.32898 10.1104 8.24996 10.3012 8.24997 10.5001C8.24998 10.699 8.32901 10.8898 8.46967 11.0305L11.25 13.8108V17.2501C11.25 17.449 11.329 17.6398 11.4697 17.7804C11.6103 17.9211 11.8011 18.0001 12 18.0001C12.1989 18.0001 12.3897 17.9211 12.5303 17.7804C12.671 17.6398 12.75 17.449 12.75 17.2501V13.8108L15.5303 11.0305C15.6 10.9608 15.6552 10.8781 15.6929 10.7871C15.7306 10.6961 15.75 10.5986 15.75 10.5001C15.75 10.4016 15.7306 10.3041 15.6929 10.2131C15.6552 10.1221 15.6 10.0394 15.5303 9.96973Z" fill="#0BB7AF"/>
</svg>
