<svg width="24" height="24" viewBox="0 0 24 24" fill="none" xmlns="http://www.w3.org/2000/svg">
<path d="M22.5001 11.25C22.4988 10.057 22.0242 8.91319 21.1806 8.06957C20.337 7.22596 19.1932 6.75141 18.0001 6.75005H14.2517C14.2031 6.74986 9.34097 6.68541 4.71481 2.80541C4.49618 2.62171 4.22966 2.50424 3.94656 2.4668C3.66347 2.42937 3.37557 2.47352 3.11671 2.59408C2.85784 2.71464 2.63877 2.90658 2.48525 3.14736C2.33172 3.38814 2.25012 3.66774 2.25003 3.9533V18.5468C2.24828 18.8325 2.32898 19.1126 2.48246 19.3536C2.63593 19.5946 2.85566 19.7861 3.11529 19.9053C3.31497 19.9992 3.5328 20.048 3.75342 20.0484C4.10554 20.0476 4.44606 19.9224 4.71472 19.6948C8.26573 16.7165 11.9554 15.9864 13.5001 15.8078V19.0987C13.4998 19.3457 13.5607 19.5889 13.6772 19.8066C13.7937 20.0244 13.9623 20.21 14.168 20.3467L15.1986 21.0338C15.3986 21.1671 15.6277 21.2504 15.8666 21.2767C16.1056 21.3029 16.3473 21.2714 16.5715 21.1847C16.7957 21.098 16.9957 20.9588 17.1549 20.7786C17.314 20.5985 17.4275 20.3827 17.4858 20.1495L18.5958 15.7094C19.6758 15.5639 20.6665 15.0319 21.3844 14.212C22.1022 13.3921 22.4986 12.3398 22.5001 11.25ZM16.0305 19.7857L15.0001 19.0987V15.75H17.0396L16.0305 19.7857ZM18.0001 14.25H15.0001V8.25005H18.0001C18.7958 8.25005 19.5588 8.56612 20.1214 9.12873C20.684 9.69134 21.0001 10.4544 21.0001 11.25C21.0001 12.0457 20.684 12.8088 20.1214 13.3714C19.5588 13.934 18.7958 14.25 18.0001 14.25Z" fill="#8A50FC"/>
</svg>
