<svg width="24" height="24" viewBox="0 0 24 24" fill="none" xmlns="http://www.w3.org/2000/svg">
<path d="M20.25 19.5001H10.8107L18.5299 11.7808L18.5304 11.7804L18.5308 11.78L20.9999 9.31083C21.1392 9.17155 21.2497 9.0062 21.3251 8.82421C21.4005 8.64222 21.4394 8.44715 21.4394 8.25016C21.4394 8.05317 21.4006 7.8581 21.3252 7.67611C21.2498 7.49411 21.1393 7.32875 21 7.18946L16.8106 3C16.5291 2.71919 16.1476 2.56151 15.7499 2.56152C15.3523 2.56154 14.9708 2.71926 14.6893 3.0001L3.43927 14.2501C3.29361 14.3958 3.17961 14.5699 3.1044 14.7617C3.09668 14.7804 3.09018 14.7995 3.08405 14.8186C3.02872 14.9768 3.00031 15.1432 3 15.3107V19.5001C3.00045 19.8978 3.15864 20.279 3.43984 20.5603C3.72105 20.8415 4.10231 20.9996 4.5 21.0001H20.25C20.4489 21.0001 20.6397 20.9211 20.7803 20.7804C20.921 20.6398 21 20.449 21 20.2501C21 20.0512 20.921 19.8604 20.7803 19.7198C20.6397 19.5791 20.4489 19.5001 20.25 19.5001ZM15.75 4.06074L19.9393 8.2501L18 10.1894L13.8107 6.0001L15.75 4.06074Z" fill="#280728"/>
</svg>
