<svg width="19" height="19" viewBox="0 0 19 19" fill="none" xmlns="http://www.w3.org/2000/svg">
<path d="M17.25 17.5001H7.81069L15.5299 9.78083L15.5304 9.78042L15.5308 9.77996L17.9999 7.31083C18.1392 7.17155 18.2497 7.0062 18.3251 6.82421C18.4005 6.64222 18.4394 6.44715 18.4394 6.25016C18.4394 6.05317 18.4006 5.8581 18.3252 5.67611C18.2498 5.49411 18.1393 5.32875 18 5.18946L13.8106 1C13.5291 0.719192 13.1476 0.561506 12.7499 0.561523C12.3523 0.561541 11.9708 0.71926 11.6893 1.0001L0.43927 12.2501C0.293612 12.3958 0.179605 12.5699 0.104395 12.7617C0.0966814 12.7804 0.0901809 12.7995 0.0840468 12.8186C0.0287222 12.9768 0.000312747 13.1432 0 13.3107V17.5001C0.000454817 17.8978 0.158636 18.279 0.439842 18.5603C0.721048 18.8415 1.10231 18.9996 1.5 19.0001H17.25C17.4489 19.0001 17.6397 18.9211 17.7803 18.7804C17.921 18.6398 18 18.449 18 18.2501C18 18.0512 17.921 17.8604 17.7803 17.7198C17.6397 17.5791 17.4489 17.5001 17.25 17.5001ZM12.75 2.06074L16.9393 6.2501L15 8.18937L10.8107 4.0001L12.75 2.06074Z" fill="#C4C7CF"/>
</svg>
