<svg width="24" height="24" viewBox="0 0 24 24" fill="none" xmlns="http://www.w3.org/2000/svg">
<path d="M21.7499 10.0608L16.2629 15.5478C16.6901 16.7365 16.8672 18.7249 15.0264 21.1715C14.8975 21.3428 14.7333 21.4844 14.545 21.5868C14.3566 21.6892 14.1484 21.7499 13.9346 21.7649C13.8994 21.7674 13.8643 21.7686 13.8292 21.7686C13.6321 21.7686 13.4369 21.7297 13.2548 21.6543C13.0728 21.5788 12.9073 21.4682 12.768 21.3288L8.24996 16.8108L5.03033 20.0304C4.88968 20.1711 4.69891 20.2501 4.49999 20.2501C4.30108 20.2501 4.1103 20.1711 3.96964 20.0305C3.82898 19.8898 3.74995 19.6991 3.74994 19.5001C3.74993 19.3012 3.82895 19.1105 3.9696 18.9698L7.18927 15.7501L2.6527 11.2135C2.50386 11.0645 2.38804 10.8858 2.31276 10.6891C2.23749 10.4924 2.20446 10.2821 2.2158 10.0717C2.22715 9.86143 2.28262 9.65585 2.37862 9.46838C2.47462 9.2809 2.60899 9.11573 2.773 8.98359C5.15667 7.06061 7.43816 7.43937 8.43682 7.75257L13.9392 2.25011L13.9393 2.25002C14.2209 1.96921 14.6023 1.81152 15 1.81152C15.3976 1.81152 15.779 1.96921 16.0606 2.25002L21.75 7.93947C21.8893 8.07876 21.9998 8.24412 22.0751 8.42612C22.1505 8.60812 22.1893 8.80318 22.1893 9.00018C22.1893 9.19717 22.1505 9.39223 22.0751 9.57422C21.9997 9.75621 21.8892 9.92157 21.7499 10.0608Z" fill="#280728"/>
</svg>
