<svg width="21" height="21" viewBox="0 0 21 21" fill="none" xmlns="http://www.w3.org/2000/svg">
<path d="M19.7499 9.06084L14.2629 14.5478C14.6901 15.7365 14.8672 17.7249 13.0264 20.1715C12.8975 20.3428 12.7333 20.4844 12.545 20.5868C12.3566 20.6892 12.1484 20.7499 11.9346 20.7649C11.8994 20.7674 11.8643 20.7686 11.8292 20.7686C11.6321 20.7686 11.4369 20.7297 11.2548 20.6543C11.0728 20.5788 10.9073 20.4682 10.768 20.3288L6.24996 15.8108L3.03033 19.0304C2.88968 19.1711 2.69891 19.2501 2.49999 19.2501C2.30108 19.2501 2.1103 19.1711 1.96964 19.0305C1.82898 18.8898 1.74995 18.6991 1.74994 18.5001C1.74993 18.3012 1.82895 18.1105 1.9696 17.9698L5.18927 14.7501L0.652701 10.2135C0.503857 10.0645 0.388035 9.88584 0.312764 9.68913C0.237493 9.49241 0.204457 9.28206 0.215803 9.07175C0.227149 8.86143 0.282623 8.65585 0.37862 8.46838C0.474617 8.2809 0.608989 8.11573 0.773001 7.98359C3.15667 6.06061 5.43816 6.43937 6.43682 6.75257L11.9392 1.25011L11.9393 1.25002C12.2209 0.969213 12.6023 0.811523 13 0.811523C13.3976 0.811523 13.779 0.969213 14.0606 1.25002L19.75 6.93947C19.8893 7.07876 19.9998 7.24412 20.0751 7.42612C20.1505 7.60812 20.1893 7.80318 20.1893 8.00018C20.1893 8.19717 20.1505 8.39223 20.0751 8.57422C19.9997 8.75621 19.8892 8.92157 19.7499 9.06084Z" fill="#C4C7CF"/>
</svg>
