<svg width="24" height="24" viewBox="0 0 24 24" fill="none" xmlns="http://www.w3.org/2000/svg">
<path d="M10.875 6.75V15C10.8737 16.1931 10.3991 17.3369 9.55549 18.1805C8.71187 19.0241 7.56806 19.4987 6.375 19.5C6.17609 19.5 5.98532 19.421 5.84467 19.2803C5.70402 19.1397 5.625 18.9489 5.625 18.75C5.625 18.5511 5.70402 18.3603 5.84467 18.2197C5.98532 18.079 6.17609 18 6.375 18C7.17038 17.9991 7.93292 17.6827 8.49533 17.1203C9.05775 16.5579 9.37411 15.7954 9.375 15V14.25H3.75C3.35231 14.2495 2.97105 14.0914 2.68984 13.8102C2.40864 13.529 2.25045 13.1477 2.25 12.75V6.75C2.25045 6.35231 2.40864 5.97105 2.68984 5.68984C2.97105 5.40864 3.35231 5.25045 3.75 5.25H9.375C9.77269 5.25045 10.154 5.40864 10.4352 5.68984C10.7164 5.97105 10.8745 6.35231 10.875 6.75ZM20.25 5.25H14.625C14.2273 5.25045 13.846 5.40864 13.5648 5.68984C13.2836 5.97105 13.1255 6.35231 13.125 6.75V12.75C13.1255 13.1477 13.2836 13.529 13.5648 13.8102C13.846 14.0914 14.2273 14.2495 14.625 14.25H20.25V15C20.2491 15.7954 19.9328 16.5579 19.3703 17.1203C18.8079 17.6827 18.0454 17.9991 17.25 18C17.0511 18 16.8603 18.079 16.7197 18.2197C16.579 18.3603 16.5 18.5511 16.5 18.75C16.5 18.9489 16.579 19.1397 16.7197 19.2803C16.8603 19.421 17.0511 19.5 17.25 19.5C18.4431 19.4987 19.5869 19.0241 20.4305 18.1805C21.2741 17.3369 21.7487 16.1931 21.75 15V6.75C21.7495 6.35231 21.5914 5.97105 21.3102 5.68984C21.029 5.40864 20.6477 5.25045 20.25 5.25Z" fill="#6F95CD"/>
</svg>
