<svg width="24" height="24" viewBox="0 0 24 24" fill="none" xmlns="http://www.w3.org/2000/svg">
<path d="M12 2.25C10.0716 2.25 8.18657 2.82183 6.58319 3.89317C4.97982 4.96451 3.73013 6.48726 2.99218 8.26884C2.25422 10.0504 2.06114 12.0108 2.43735 13.9021C2.81355 15.7934 3.74215 17.5307 5.10571 18.8943C6.46928 20.2579 8.20656 21.1865 10.0979 21.5627C11.9892 21.9389 13.9496 21.7458 15.7312 21.0078C17.5127 20.2699 19.0355 19.0202 20.1068 17.4168C21.1782 15.8134 21.75 13.9284 21.75 12C21.7471 9.41504 20.7189 6.93679 18.8911 5.10894C17.0632 3.28109 14.585 2.25293 12 2.25ZM12.0001 18C11.7776 18 11.56 17.9341 11.375 17.8104C11.19 17.6868 11.0458 17.5111 10.9607 17.3056C10.8755 17.1 10.8533 16.8738 10.8967 16.6556C10.9401 16.4373 11.0472 16.2369 11.2046 16.0795C11.3619 15.9222 11.5624 15.8151 11.7806 15.7717C11.9988 15.7282 12.225 15.7505 12.4306 15.8357C12.6361 15.9208 12.8118 16.065 12.9355 16.25C13.0591 16.435 13.1251 16.6525 13.1251 16.875C13.1251 17.1734 13.0065 17.4596 12.7955 17.6705C12.5846 17.8815 12.2984 18 12.0001 18ZM12.75 13.4165V13.5005C12.75 13.6994 12.671 13.8901 12.5303 14.0308C12.3897 14.1714 12.1989 14.2505 12 14.2505C11.8011 14.2505 11.6103 14.1714 11.4697 14.0308C11.329 13.8901 11.25 13.6994 11.25 13.5005V12.7505C11.25 12.5515 11.329 12.3608 11.4697 12.2201C11.6103 12.0795 11.8011 12.0005 12 12.0005C12.3708 12.0005 12.7334 11.8905 13.0417 11.6845C13.35 11.4784 13.5904 11.1856 13.7323 10.843C13.8742 10.5004 13.9113 10.1234 13.839 9.75966C13.7666 9.39595 13.5881 9.06186 13.3258 8.79963C13.0636 8.53741 12.7295 8.35883 12.3658 8.28649C12.0021 8.21414 11.6251 8.25127 11.2825 8.39318C10.9399 8.5351 10.647 8.77542 10.441 9.08376C10.235 9.39211 10.125 9.75462 10.125 10.1255C10.125 10.3244 10.046 10.5151 9.90534 10.6558C9.76469 10.7964 9.57392 10.8755 9.37501 10.8755C9.1761 10.8755 8.98533 10.7964 8.84468 10.6558C8.70403 10.5151 8.62501 10.3244 8.62501 10.1255C8.62509 9.49014 8.80449 8.86774 9.14259 8.32985C9.48068 7.79196 9.96373 7.36042 10.5362 7.08487C11.1086 6.80931 11.7472 6.70093 12.3785 6.77219C13.0099 6.84344 13.6082 7.09144 14.1049 7.48767C14.6015 7.88389 14.9762 8.41225 15.1859 9.01196C15.3956 9.61168 15.4317 10.2584 15.2902 10.8778C15.1487 11.4971 14.8352 12.0639 14.3858 12.5131C13.9364 12.9622 13.3694 13.2753 12.75 13.4165Z" fill="#AA7762"/>
</svg>
