<svg width="24" height="24" viewBox="0 0 24 24" fill="none" xmlns="http://www.w3.org/2000/svg">
<path d="M2.39985 10.7994C3.06457 9.90868 3.95119 9.2078 4.97129 8.76664C4.41285 8.25676 4.0216 7.58997 3.8489 6.85376C3.6762 6.11755 3.7301 5.34633 4.00354 4.6413C4.27699 3.93628 4.75719 3.3304 5.38113 2.90316C6.00507 2.47593 6.7436 2.24731 7.49979 2.24731C8.25598 2.24731 8.99451 2.47593 9.61845 2.90316C10.2424 3.3304 10.7226 3.93628 10.996 4.6413C11.2695 5.34633 11.3234 6.11755 11.1507 6.85376C10.978 7.58997 10.5867 8.25676 10.0283 8.76664C10.7647 9.08427 11.4338 9.53938 11.9998 10.1076C12.5657 9.53935 13.2349 9.08424 13.9713 8.76664C13.4128 8.25676 13.0216 7.58997 12.8489 6.85376C12.6762 6.11755 12.7301 5.34633 13.0035 4.6413C13.277 3.93628 13.7572 3.3304 14.3811 2.90316C15.0051 2.47593 15.7436 2.24731 16.4998 2.24731C17.256 2.24731 17.9945 2.47593 18.6185 2.90316C19.2424 3.3304 19.7226 3.93628 19.996 4.6413C20.2695 5.34633 20.3234 6.11755 20.1507 6.85376C19.978 7.58997 19.5867 8.25676 19.0283 8.76664C20.0483 9.20777 20.9349 9.90859 21.5996 10.7992C21.6588 10.8779 21.702 10.9676 21.7266 11.063C21.7512 11.1585 21.7568 11.2578 21.743 11.3554C21.7292 11.453 21.6963 11.5469 21.6461 11.6317C21.596 11.7166 21.5296 11.7908 21.4508 11.8499C21.372 11.9091 21.2823 11.9522 21.1869 11.9767C21.0914 12.0012 20.9921 12.0067 20.8945 11.9928C20.7969 11.9788 20.703 11.9458 20.6182 11.8956C20.5334 11.8454 20.4594 11.7789 20.4003 11.7001C19.9461 11.0946 19.3571 10.6031 18.6801 10.2647C18.0031 9.9262 17.2566 9.74999 16.4997 9.75001C15.7428 9.75003 14.9962 9.92627 14.3192 10.2648C13.6422 10.6033 13.0533 11.0947 12.5992 11.7003C12.5979 11.7019 12.5965 11.7033 12.5952 11.7049C12.5801 11.7247 12.5639 11.7437 12.5468 11.7619C12.5412 11.7679 12.5355 11.7736 12.5297 11.7793C12.5166 11.7925 12.5029 11.8051 12.4886 11.8174C12.4804 11.8246 12.472 11.8316 12.4635 11.8384C12.459 11.8419 12.455 11.8459 12.4504 11.8493C12.4419 11.8557 12.4328 11.8611 12.4241 11.8671C12.4146 11.8736 12.4052 11.8803 12.3954 11.8864C12.3801 11.896 12.3643 11.9045 12.3485 11.9128C12.3406 11.9169 12.333 11.9215 12.3251 11.9254C12.2765 11.9487 12.2256 11.9668 12.1732 11.9791C12.1656 11.9809 12.158 11.9821 12.1503 11.9836C12.1321 11.9874 12.1139 11.9907 12.0955 11.993C12.0851 11.9944 12.0748 11.9952 12.0644 11.9961C12.0489 11.9974 12.0334 11.9984 12.0179 11.9987C12.0116 11.9989 12.0053 11.9998 11.999 11.9998C11.9947 11.9998 11.9905 11.9989 11.9862 11.9988C11.9539 11.9984 11.9216 11.9958 11.8896 11.9912C11.8808 11.9899 11.8721 11.9878 11.8633 11.9862C11.8368 11.9813 11.8106 11.975 11.7848 11.9673C11.776 11.9646 11.7671 11.9625 11.7583 11.9595C11.7275 11.9489 11.6974 11.9362 11.6682 11.9217C11.6595 11.9173 11.6508 11.9129 11.6422 11.9082C11.6119 11.8919 11.5829 11.8736 11.5552 11.8533C11.5532 11.8519 11.551 11.851 11.5491 11.8495C11.5381 11.8413 11.5283 11.8322 11.5179 11.8236C11.5119 11.8185 11.5057 11.8138 11.4999 11.8085C11.4843 11.7946 11.4697 11.78 11.4556 11.7651C11.4531 11.7625 11.4504 11.76 11.448 11.7574C11.4275 11.7354 11.4083 11.7123 11.3906 11.688C10.9354 11.0849 10.3462 10.5959 9.66957 10.2596C8.99296 9.92328 8.24743 9.74883 7.49183 9.75001C6.73624 9.7512 5.99126 9.92801 5.31571 10.2665C4.64016 10.6049 4.05252 11.0958 3.59919 11.7003C3.47972 11.8593 3.30197 11.9644 3.10504 11.9924C2.90811 12.0204 2.70812 11.969 2.54908 11.8495C2.39003 11.73 2.28496 11.5523 2.25698 11.3553C2.22899 11.1584 2.28038 10.9584 2.39984 10.7994L2.39985 10.7994ZM19.0283 18.5166C19.5867 18.0068 19.978 17.34 20.1507 16.6038C20.3234 15.8676 20.2695 15.0963 19.996 14.3913C19.7226 13.6863 19.2424 13.0804 18.6185 12.6532C17.9945 12.2259 17.256 11.9973 16.4998 11.9973C15.7436 11.9973 15.0051 12.2259 14.3811 12.6532C13.7572 13.0804 13.277 13.6863 13.0035 14.3913C12.7301 15.0963 12.6762 15.8676 12.8489 16.6038C13.0216 17.34 13.4128 18.0068 13.9713 18.5166C13.2349 18.8342 12.5657 19.2894 11.9998 19.8576C11.4338 19.2894 10.7647 18.8343 10.0283 18.5166C10.5867 18.0068 10.978 17.34 11.1507 16.6038C11.3234 15.8676 11.2695 15.0963 10.996 14.3913C10.7226 13.6863 10.2424 13.0804 9.61845 12.6532C8.99451 12.2259 8.25598 11.9973 7.49979 11.9973C6.7436 11.9973 6.00507 12.2259 5.38113 12.6532C4.75719 13.0804 4.27699 13.6863 4.00354 14.3913C3.7301 15.0963 3.6762 15.8676 3.8489 16.6038C4.0216 17.34 4.41285 18.0068 4.97129 18.5166C3.95119 18.9578 3.06457 19.6587 2.39985 20.5494C2.31617 20.6608 2.26517 20.7933 2.25258 20.9321C2.23999 21.0708 2.26631 21.2103 2.32857 21.335C2.39084 21.4596 2.48659 21.5645 2.6051 21.6377C2.72361 21.711 2.86019 21.7498 2.99952 21.7498L11.997 21.7496L11.9995 21.7498L20.9999 21.7496C21.1393 21.7496 21.2758 21.7108 21.3943 21.6376C21.5129 21.5643 21.6086 21.4595 21.6709 21.3348C21.7331 21.2102 21.7594 21.0706 21.7468 20.9319C21.7342 20.7931 21.6832 20.6606 21.5996 20.5492C20.9349 19.6586 20.0483 18.9578 19.0283 18.5166Z" fill="#C879CC"/>
</svg>
