<svg width="18" height="18" viewBox="0 0 14 14" fill="none" xmlns="http://www.w3.org/2000/svg" class=" mr-2 w-4 h-4"><path fill-rule="evenodd" clip-rule="evenodd" d="M10.9138 4.17919e-07H10.864C10.5229 -8.59895e-06 10.2284 -1.63793e-05 9.98481 0.0166068C9.72828 0.0341099 9.47168 0.0726128 9.21818 0.177616C8.64645 0.414435 8.19221 0.868674 7.95539 1.44041C7.85039 1.69391 7.81189 1.9505 7.79438 2.20704C7.77776 2.45067 7.77777 2.74504 7.77778 3.0862V3.13599C7.77777 3.47715 7.77776 3.77155 7.79438 4.01519C7.81189 4.27172 7.85039 4.52832 7.95539 4.78182C8.19221 5.35355 8.64645 5.80779 9.21818 6.04461C9.47168 6.14961 9.72828 6.18811 9.98481 6.20562C10.2284 6.22224 10.5228 6.22223 10.864 6.22222H10.9138C11.2549 6.22223 11.5493 6.22224 11.793 6.20562C12.0495 6.18811 12.3061 6.14961 12.5596 6.04461C13.1313 5.80779 13.5856 5.35355 13.8224 4.78182C13.9274 4.52832 13.9659 4.27172 13.9834 4.01519C14 3.77154 14 3.47716 14 3.13599V3.08623C14 2.74506 14 2.45068 13.9834 2.20704C13.9659 1.9505 13.9274 1.69391 13.8224 1.44041C13.5856 0.868674 13.1313 0.414435 12.5596 0.177616C12.3061 0.0726128 12.0495 0.0341099 11.793 0.0166068C11.5493 -1.63793e-05 11.2549 -8.59895e-06 10.9138 4.17919e-07ZM9.81347 1.61476C9.84583 1.60135 9.91337 1.58065 10.0907 1.56855C10.275 1.55598 10.5158 1.55556 10.8889 1.55556C11.2619 1.55556 11.5028 1.55598 11.6871 1.56855C11.8644 1.58065 11.9319 1.60135 11.9643 1.61476C12.1549 1.6937 12.3063 1.84511 12.3852 2.03569C12.3986 2.06806 12.4193 2.13559 12.4314 2.31293C12.444 2.49724 12.4444 2.73807 12.4444 3.11111C12.4444 3.48415 12.444 3.72498 12.4314 3.9093C12.4193 4.08663 12.3986 4.15417 12.3852 4.18653C12.3063 4.37711 12.1549 4.52852 11.9643 4.60746C11.9319 4.62087 11.8644 4.64157 11.6871 4.65367C11.5028 4.66625 11.2619 4.66667 10.8889 4.66667C10.5158 4.66667 10.275 4.66625 10.0907 4.65367C9.91337 4.64157 9.84583 4.62087 9.81347 4.60746C9.62289 4.52852 9.47148 4.37711 9.39254 4.18653C9.37913 4.15417 9.35843 4.08663 9.34633 3.9093C9.33375 3.72498 9.33333 3.48415 9.33333 3.11111C9.33333 2.73807 9.33375 2.49724 9.34633 2.31293C9.35843 2.13559 9.37913 2.06806 9.39254 2.03569C9.47148 1.84511 9.62289 1.6937 9.81347 1.61476Z" fill="#827A9C"></path><path fill-rule="evenodd" clip-rule="evenodd" d="M3.08624 7.77778H3.13599C3.47715 7.77777 3.77155 7.77776 4.01519 7.79438C4.27172 7.81189 4.52832 7.85039 4.78182 7.95539C5.35355 8.19221 5.80779 8.64645 6.04461 9.21818C6.14961 9.47168 6.18811 9.72828 6.20562 9.98481C6.22224 10.2284 6.22223 10.5228 6.22222 10.864V10.9138C6.22223 11.2549 6.22224 11.5493 6.20562 11.793C6.18811 12.0495 6.14961 12.3061 6.04461 12.5596C5.80779 13.1313 5.35355 13.5856 4.78182 13.8224C4.52832 13.9274 4.27172 13.9659 4.01519 13.9834C3.77154 14 3.47716 14 3.13599 14H3.08623C2.74506 14 2.45068 14 2.20704 13.9834C1.9505 13.9659 1.69391 13.9274 1.44041 13.8224C0.868674 13.5856 0.414435 13.1313 0.177616 12.5596C0.0726128 12.3061 0.0341099 12.0495 0.0166068 11.793C-1.63793e-05 11.5493 -8.59895e-06 11.255 4.17919e-07 10.9138V10.864C-8.59895e-06 10.5229 -1.63793e-05 10.2284 0.0166068 9.98481C0.0341099 9.72828 0.0726128 9.47168 0.177616 9.21818C0.414435 8.64645 0.868674 8.19221 1.44041 7.95539C1.69391 7.85039 1.9505 7.81189 2.20704 7.79438C2.45067 7.77776 2.74508 7.77777 3.08624 7.77778ZM2.31293 9.34633C2.13559 9.35843 2.06806 9.37913 2.03569 9.39254C1.84511 9.47148 1.6937 9.62289 1.61476 9.81347C1.60135 9.84583 1.58065 9.91337 1.56855 10.0907C1.55598 10.275 1.55556 10.5158 1.55556 10.8889C1.55556 11.2619 1.55598 11.5028 1.56855 11.6871C1.58065 11.8644 1.60135 11.9319 1.61476 11.9643C1.6937 12.1549 1.84511 12.3063 2.03569 12.3852C2.06806 12.3986 2.13559 12.4193 2.31293 12.4314C2.49724 12.444 2.73807 12.4444 3.11111 12.4444C3.48415 12.4444 3.72498 12.444 3.9093 12.4314C4.08663 12.4193 4.15417 12.3986 4.18653 12.3852C4.37711 12.3063 4.52852 12.1549 4.60746 11.9643C4.62087 11.9319 4.64157 11.8644 4.65367 11.6871C4.66625 11.5028 4.66667 11.2619 4.66667 10.8889C4.66667 10.5158 4.66625 10.275 4.65367 10.0907C4.64157 9.91337 4.62087 9.84583 4.60746 9.81347C4.52852 9.62289 4.37711 9.47148 4.18653 9.39254C4.15417 9.37913 4.08663 9.35843 3.9093 9.34633C3.72498 9.33375 3.48415 9.33333 3.11111 9.33333C2.73807 9.33333 2.49724 9.33375 2.31293 9.34633Z" fill="#827A9C"></path><path fill-rule="evenodd" clip-rule="evenodd" d="M10.864 7.77778H10.9138C11.2549 7.77777 11.5493 7.77776 11.793 7.79438C12.0495 7.81189 12.3061 7.85039 12.5596 7.95539C13.1313 8.19221 13.5856 8.64645 13.8224 9.21818C13.9274 9.47168 13.9659 9.72828 13.9834 9.98481C14 10.2285 14 10.5228 14 10.864V10.9138C14 11.2549 14 11.5493 13.9834 11.793C13.9659 12.0495 13.9274 12.3061 13.8224 12.5596C13.5856 13.1313 13.1313 13.5856 12.5596 13.8224C12.3061 13.9274 12.0495 13.9659 11.793 13.9834C11.5493 14 11.2549 14 10.9138 14H10.864C10.5228 14 10.2285 14 9.98481 13.9834C9.72828 13.9659 9.47168 13.9274 9.21818 13.8224C8.64645 13.5856 8.19221 13.1313 7.95539 12.5596C7.85039 12.3061 7.81189 12.0495 7.79438 11.793C7.77776 11.5493 7.77777 11.255 7.77778 10.9138V10.864C7.77777 10.5229 7.77776 10.2284 7.79438 9.98481C7.81189 9.72828 7.85039 9.47168 7.95539 9.21818C8.19221 8.64645 8.64645 8.19221 9.21818 7.95539C9.47168 7.85039 9.72828 7.81189 9.98481 7.79438C10.2284 7.77776 10.5229 7.77777 10.864 7.77778ZM10.0907 9.34633C9.91337 9.35843 9.84583 9.37913 9.81347 9.39254C9.62289 9.47148 9.47148 9.62289 9.39254 9.81347C9.37913 9.84583 9.35843 9.91337 9.34633 10.0907C9.33375 10.275 9.33333 10.5158 9.33333 10.8889C9.33333 11.2619 9.33375 11.5028 9.34633 11.6871C9.35843 11.8644 9.37913 11.9319 9.39254 11.9643C9.47148 12.1549 9.62289 12.3063 9.81347 12.3852C9.84583 12.3986 9.91337 12.4193 10.0907 12.4314C10.275 12.444 10.5158 12.4444 10.8889 12.4444C11.2619 12.4444 11.5028 12.444 11.6871 12.4314C11.8644 12.4193 11.9319 12.3986 11.9643 12.3852C12.1549 12.3063 12.3063 12.1549 12.3852 11.9643C12.3986 11.9319 12.4193 11.8644 12.4314 11.6871C12.444 11.5028 12.4444 11.2619 12.4444 10.8889C12.4444 10.5158 12.444 10.275 12.4314 10.0907C12.4193 9.91337 12.3986 9.84583 12.3852 9.81347C12.3063 9.62289 12.1549 9.47148 11.9643 9.39254C11.9319 9.37913 11.8644 9.35843 11.6871 9.34633C11.5028 9.33375 11.2619 9.33333 10.8889 9.33333C10.5158 9.33333 10.275 9.33375 10.0907 9.34633Z" fill="#827A9C"></path><path fill-rule="evenodd" clip-rule="evenodd" d="M3.08624 4.5578e-07H3.13599C3.47716 -9.09421e-06 3.77154 -1.7531e-05 4.01519 0.0166063C4.27172 0.0341094 4.52832 0.0726123 4.78182 0.177615C5.35355 0.414435 5.80779 0.868674 6.04461 1.44041C6.14961 1.69391 6.18811 1.9505 6.20562 2.20704C6.22224 2.45068 6.22223 2.74506 6.22222 3.08623V3.13599C6.22223 3.47716 6.22224 3.77154 6.20562 4.01519C6.18811 4.27172 6.14961 4.52832 6.04461 4.78182C5.80779 5.35355 5.35355 5.80779 4.78182 6.04461C4.52832 6.14961 4.27172 6.18811 4.01519 6.20562C3.77154 6.22224 3.47716 6.22223 3.13599 6.22222H3.08623C2.74506 6.22223 2.45068 6.22224 2.20704 6.20562C1.9505 6.18811 1.69391 6.14961 1.44041 6.04461C0.868674 5.80779 0.414435 5.35355 0.177615 4.78182C0.0726123 4.52832 0.0341094 4.27172 0.0166063 4.01519C-1.7531e-05 3.77154 -9.09421e-06 3.47716 4.5578e-07 3.13599V3.08624C-9.09421e-06 2.74506 -1.7531e-05 2.45068 0.0166063 2.20704C0.0341094 1.9505 0.0726123 1.69391 0.177615 1.44041C0.414435 0.868674 0.868674 0.414435 1.44041 0.177615C1.69391 0.0726123 1.9505 0.0341094 2.20704 0.0166063C2.45068 -1.7531e-05 2.74506 -9.09421e-06 3.08624 4.5578e-07ZM2.31292 1.56855C2.13559 1.58065 2.06806 1.60135 2.03569 1.61476C1.84511 1.6937 1.6937 1.84511 1.61476 2.03569C1.60135 2.06806 1.58065 2.13559 1.56855 2.31292C1.55598 2.49724 1.55556 2.73807 1.55556 3.11111C1.55556 3.48415 1.55598 3.72498 1.56855 3.9093C1.58065 4.08663 1.60135 4.15417 1.61476 4.18653C1.6937 4.37711 1.84511 4.52852 2.03569 4.60746C2.06806 4.62087 2.13559 4.64157 2.31292 4.65367C2.49724 4.66625 2.73807 4.66667 3.11111 4.66667C3.48415 4.66667 3.72498 4.66625 3.9093 4.65367C4.08663 4.64157 4.15417 4.62087 4.18653 4.60746C4.37711 4.52852 4.52852 4.37711 4.60746 4.18653C4.62087 4.15417 4.64157 4.08663 4.65367 3.9093C4.66625 3.72498 4.66667 3.48415 4.66667 3.11111C4.66667 2.73807 4.66625 2.49724 4.65367 2.31292C4.64157 2.13559 4.62087 2.06806 4.60746 2.03569C4.52852 1.84511 4.37711 1.6937 4.18653 1.61476C4.15417 1.60135 4.08663 1.58065 3.9093 1.56855C3.72498 1.55598 3.48415 1.55556 3.11111 1.55556C2.73807 1.55556 2.49724 1.55598 2.31292 1.56855Z" fill="#827A9C"></path></svg>