<svg width="22" height="21" viewBox="0 0 22 21" fill="none" xmlns="http://www.w3.org/2000/svg">
<path fill-rule="evenodd" clip-rule="evenodd" d="M21.6666 14V3.33333C21.6666 2.62609 21.3857 1.94781 20.8856 1.44772C20.3855 0.947619 19.7072 0.666668 19 0.666668H2.99998C2.29274 0.666668 1.61446 0.947619 1.11436 1.44772C0.614264 1.94781 0.333313 2.62609 0.333313 3.33333V14C0.333313 14.7072 0.614264 15.3855 1.11436 15.8856C1.61446 16.3857 2.29274 16.6667 2.99998 16.6667H6.99998L11 20.6667L15 16.6667H19C19.7072 16.6667 20.3855 16.3857 20.8856 15.8856C21.3857 15.3855 21.6666 14.7072 21.6666 14ZM4.33331 6C4.33331 5.64638 4.47379 5.30724 4.72384 5.05719C4.97389 4.80714 5.31302 4.66667 5.66665 4.66667H16.3333C16.6869 4.66667 17.0261 4.80714 17.2761 5.05719C17.5262 5.30724 17.6666 5.64638 17.6666 6C17.6666 6.35362 17.5262 6.69276 17.2761 6.94281C17.0261 7.19286 16.6869 7.33333 16.3333 7.33333H5.66665C5.31302 7.33333 4.97389 7.19286 4.72384 6.94281C4.47379 6.69276 4.33331 6.35362 4.33331 6ZM5.66665 10C5.31302 10 4.97389 10.1405 4.72384 10.3905C4.47379 10.6406 4.33331 10.9797 4.33331 11.3333C4.33331 11.687 4.47379 12.0261 4.72384 12.2761C4.97389 12.5262 5.31302 12.6667 5.66665 12.6667H9.66665C10.0203 12.6667 10.3594 12.5262 10.6095 12.2761C10.8595 12.0261 11 11.687 11 11.3333C11 10.9797 10.8595 10.6406 10.6095 10.3905C10.3594 10.1405 10.0203 10 9.66665 10H5.66665Z" fill="#F8C058"/>
</svg>
