<svg width="22" height="16" viewBox="0 0 22 16" fill="none" xmlns="http://www.w3.org/2000/svg">
<path d="M9.66665 1.07201C8.21293 0.364225 6.61684 -0.00241973 4.99998 1.20176e-05C3.32665 1.20176e-05 1.74265 0.386679 0.333313 1.07201V14.4053C1.78704 13.6976 3.38312 13.331 4.99998 13.3333C7.22531 13.3333 9.29065 14.0133 11 15.18C12.7681 13.9737 14.8595 13.33 17 13.3333C18.6733 13.3333 20.2573 13.72 21.6666 14.4053V1.07201C20.2129 0.364225 18.6168 -0.00241973 17 1.20176e-05C15.3266 1.20176e-05 13.7426 0.386679 12.3333 1.07201V10.6667C12.3333 11.0203 12.1928 11.3594 11.9428 11.6095C11.6927 11.8595 11.3536 12 11 12C10.6464 12 10.3072 11.8595 10.0572 11.6095C9.80712 11.3594 9.66665 11.0203 9.66665 10.6667V1.07201Z" fill="#F8C058"/>
</svg>
