<svg width="22" height="22" viewBox="0 0 22 22" fill="none" xmlns="http://www.w3.org/2000/svg">
<path d="M12.3333 1.66666C12.3333 1.31304 12.1928 0.973901 11.9428 0.723852C11.6927 0.473804 11.3536 0.333328 11 0.333328C10.6464 0.333328 10.3072 0.473804 10.0572 0.723852C9.80712 0.973901 9.66665 1.31304 9.66665 1.66666V2.99999C9.66665 3.35362 9.80712 3.69275 10.0572 3.9428C10.3072 4.19285 10.6464 4.33333 11 4.33333C11.3536 4.33333 11.6927 4.19285 11.9428 3.9428C12.1928 3.69275 12.3333 3.35362 12.3333 2.99999V1.66666ZM18.5426 5.34266C18.7855 5.09119 18.9199 4.75439 18.9169 4.40479C18.9138 4.0552 18.7736 3.72078 18.5264 3.47357C18.2792 3.22636 17.9448 3.08613 17.5952 3.0831C17.2456 3.08006 16.9088 3.21445 16.6573 3.45733L15.7146 4.39999C15.4718 4.65146 15.3374 4.98827 15.3404 5.33786C15.3435 5.68746 15.4837 6.02187 15.7309 6.26909C15.9781 6.5163 16.3125 6.65652 16.6621 6.65956C17.0117 6.6626 17.3485 6.52821 17.6 6.28533L18.5426 5.34266ZM21.6666 11C21.6666 11.3536 21.5262 11.6928 21.2761 11.9428C21.0261 12.1929 20.6869 12.3333 20.3333 12.3333H19C18.6464 12.3333 18.3072 12.1929 18.0572 11.9428C17.8071 11.6928 17.6666 11.3536 17.6666 11C17.6666 10.6464 17.8071 10.3072 18.0572 10.0572C18.3072 9.80714 18.6464 9.66666 19 9.66666H20.3333C20.6869 9.66666 21.0261 9.80714 21.2761 10.0572C21.5262 10.3072 21.6666 10.6464 21.6666 11ZM4.39998 6.28533C4.52298 6.41267 4.6701 6.51425 4.83277 6.58413C4.99545 6.65401 5.17041 6.69079 5.34744 6.69233C5.52448 6.69387 5.70006 6.66013 5.86392 6.59309C6.02778 6.52605 6.17665 6.42704 6.30184 6.30185C6.42703 6.17666 6.52603 6.02779 6.59308 5.86393C6.66012 5.70007 6.69385 5.5245 6.69231 5.34746C6.69077 5.17042 6.65399 4.99546 6.58411 4.83279C6.51424 4.67012 6.41266 4.52299 6.28531 4.39999L5.34265 3.45733C5.09118 3.21445 4.75437 3.08006 4.40478 3.0831C4.05518 3.08613 3.72077 3.22636 3.47355 3.47357C3.22634 3.72078 3.08612 4.0552 3.08308 4.40479C3.08004 4.75439 3.21444 5.09119 3.45731 5.34266L4.39998 6.28533ZM4.33331 11C4.33331 11.3536 4.19284 11.6928 3.94279 11.9428C3.69274 12.1929 3.3536 12.3333 2.99998 12.3333H1.66665C1.31302 12.3333 0.973886 12.1929 0.723837 11.9428C0.473789 11.6928 0.333313 11.3536 0.333313 11C0.333313 10.6464 0.473789 10.3072 0.723837 10.0572C0.973886 9.80714 1.31302 9.66666 1.66665 9.66666H2.99998C3.3536 9.66666 3.69274 9.80714 3.94279 10.0572C4.19284 10.3072 4.33331 10.6464 4.33331 11ZM8.33331 19V17.6667H13.6666V19C13.6666 19.7072 13.3857 20.3855 12.8856 20.8856C12.3855 21.3857 11.7072 21.6667 11 21.6667C10.2927 21.6667 9.61446 21.3857 9.11436 20.8856C8.61426 20.3855 8.33331 19.7072 8.33331 19ZM13.6666 16.3333C13.6866 15.88 13.944 15.472 14.3026 15.188C15.1729 14.5017 15.8077 13.5613 16.1188 12.4975C16.43 11.4338 16.402 10.2995 16.0388 9.25243C15.6755 8.20533 14.9951 7.29739 14.0921 6.65481C13.1891 6.01224 12.1083 5.66696 11 5.66696C9.89166 5.66696 8.81088 6.01224 7.90785 6.65481C7.00482 7.29739 6.32441 8.20533 5.96119 9.25243C5.59797 10.2995 5.56998 11.4338 5.88112 12.4975C6.19226 13.5613 6.82707 14.5017 7.69731 15.188C8.05731 15.472 8.31331 15.88 8.33198 16.3333H13.668H13.6666Z" fill="#F8C058"/>
</svg>
