<?xml version="1.0"?>
<svg xmlns="http://www.w3.org/2000/svg" xmlns:xlink="http://www.w3.org/1999/xlink" xmlns:svgjs="http://svgjs.com/svgjs" version="1.1" width="512" height="512" x="0" y="0" viewBox="0 0 682 682.66669" style="enable-background:new 0 0 512 512" xml:space="preserve" class=""><g><path xmlns="http://www.w3.org/2000/svg" d="m422.554688 128.417969h113.699218l-119.667968-117.535157v111.574219c0 3.285157 2.675781 5.960938 5.96875 5.960938zm0 0" fill="#2cb430" data-original="#000000" style="" class=""/><path xmlns="http://www.w3.org/2000/svg" d="m422.554688 165.917969c-23.964844 0-43.464844-19.496094-43.464844-43.460938v-122.457031h-311.796875c-38.578125 0-69.960938 31.382812-69.960938 69.960938v500.078124c0 38.578126 31.382813 69.960938 69.960938 69.960938h410.078125c38.582031 0 69.960937-31.382812 69.960937-69.960938v-404.121093zm-42.859376 319.082031h-241.503906c-10.355468 0-18.75-8.394531-18.75-18.75s8.394532-18.75 18.75-18.75h241.503906c10.359376 0 18.75 8.394531 18.75 18.75s-8.390624 18.75-18.75 18.75zm-260.253906-93.75c0-10.355469 8.394532-18.75 18.75-18.75h215.507813c10.359375 0 18.75 8.394531 18.75 18.75s-8.398438 18.75-18.75 18.75h-215.507813c-10.355468 0-18.75-8.394531-18.75-18.75zm283.054688-56.25h-264.304688c-10.355468 0-18.75-8.394531-18.75-18.75s8.394532-18.75 18.75-18.75h264.304688c10.355468 0 18.75 8.394531 18.75 18.75s-8.394532 18.75-18.75 18.75zm0 0" fill="#2cb430" data-original="#000000" style="" class=""/></g></svg>
