<svg width="17" height="17" viewBox="0 0 17 17" fill="none" xmlns="http://www.w3.org/2000/svg">
<path fill-rule="evenodd" clip-rule="evenodd" d="M8.50052 16.4992C4.84867 16.4994 1.66031 14.0263 0.752091 10.4892C-0.156131 6.95213 1.44637 3.24896 4.64653 1.48971C7.84669 -0.269549 11.832 0.36176 14.3318 3.02393L12.3041 4.9285C11.3212 3.87347 9.94242 3.27686 8.50052 3.2827C5.84881 3.28833 3.62317 5.28222 3.32716 7.91736C3.03115 10.5525 4.75895 12.9905 7.34332 13.5843C9.92768 14.1781 12.5464 12.7388 13.4303 10.2388H9.54393V7.45634H16.5V8.91711C16.2777 13.1713 12.7605 16.505 8.50052 16.4992V16.4992Z" fill="#EA4335"/>
<path fill-rule="evenodd" clip-rule="evenodd" d="M11.66 12.66C12.4508 12.0622 13.0782 11.2346 13.4303 10.2388H9.54395V7.45634H16.5V8.91712C16.3795 11.2237 15.2904 13.2596 13.6395 14.6395L11.66 12.66Z" fill="#4285F4"/>
<path fill-rule="evenodd" clip-rule="evenodd" d="M11.6599 12.66L13.6394 14.6395C12.2454 15.8046 10.4508 16.5019 8.50047 16.4992C5.82353 16.4993 3.39564 15.1705 1.93237 13.0677L3.95656 11.0435C4.65423 12.2915 5.85713 13.2428 7.34327 13.5843C8.89817 13.9416 10.4655 13.5629 11.6599 12.66Z" fill="#34A853"/>
<path fill-rule="evenodd" clip-rule="evenodd" d="M3.90323 6.05242C3.60277 6.61774 3.40248 7.24679 3.32716 7.91736C3.20137 9.03711 3.44102 10.1213 3.95655 11.0434L1.93235 13.0676C1.39948 12.3019 0.994542 11.4335 0.752091 10.4892C0.203638 8.35326 0.570759 6.15673 1.65239 4.36429L3.90323 6.05242Z" fill="#FBBC05"/>
</svg>
