<svg width="22" height="20" viewBox="0 0 22 20" fill="none" xmlns="http://www.w3.org/2000/svg">
<path fill-rule="evenodd" clip-rule="evenodd" d="M1.11436 1.4477C0.614264 1.9478 0.333313 2.62608 0.333313 3.33332V16.6667C0.333313 17.3739 0.614264 18.0522 1.11436 18.5523C1.61446 19.0524 2.29274 19.3333 2.99998 19.3333H19C18.2927 19.3333 17.6145 19.0524 17.1144 18.5523C16.6143 18.0522 16.3333 17.3739 16.3333 16.6667V3.33332C16.3333 2.62608 16.0524 1.9478 15.5523 1.4477C15.0522 0.947608 14.3739 0.666656 13.6666 0.666656H2.99998C2.29274 0.666656 1.61446 0.947608 1.11436 1.4477ZM12.3333 4.66666H4.33331V9.99999H12.3333V4.66666ZM4.33331 12.6667H12.3333V15.3333H4.33331V12.6667Z" fill="#F8C058"/>
<path d="M19 5.99999H17.6666V16C17.6666 16.5304 17.8774 17.0391 18.2524 17.4142C18.6275 17.7893 19.1362 18 19.6666 18C20.1971 18 20.7058 17.7893 21.0809 17.4142C21.4559 17.0391 21.6666 16.5304 21.6666 16V8.66666C21.6666 7.95941 21.3857 7.28114 20.8856 6.78104C20.3855 6.28094 19.7072 5.99999 19 5.99999Z" fill="#F8C058"/>
</svg>
