<svg width="22" height="22" viewBox="0 0 22 22" fill="none" xmlns="http://www.w3.org/2000/svg">
<path fill-rule="evenodd" clip-rule="evenodd" d="M21.6666 11C21.6666 13.829 20.5428 16.5421 18.5425 18.5425C16.5421 20.5429 13.829 21.6667 11 21.6667C8.171 21.6667 5.4579 20.5429 3.45751 18.5425C1.45712 16.5421 0.333313 13.829 0.333313 11C0.333313 8.17102 1.45712 5.45791 3.45751 3.45752C5.4579 1.45713 8.171 0.333328 11 0.333328C13.829 0.333328 16.5421 1.45713 18.5425 3.45752C20.5428 5.45791 21.6666 8.17102 21.6666 11ZM12.3333 5.66666C12.3333 6.02028 12.1928 6.35942 11.9428 6.60947C11.6927 6.85952 11.3536 6.99999 11 6.99999C10.6464 6.99999 10.3072 6.85952 10.0572 6.60947C9.80712 6.35942 9.66665 6.02028 9.66665 5.66666C9.66665 5.31304 9.80712 4.9739 10.0572 4.72385C10.3072 4.4738 10.6464 4.33333 11 4.33333C11.3536 4.33333 11.6927 4.4738 11.9428 4.72385C12.1928 4.9739 12.3333 5.31304 12.3333 5.66666ZM9.66665 9.66666C9.31302 9.66666 8.97389 9.80714 8.72384 10.0572C8.47379 10.3072 8.33331 10.6464 8.33331 11C8.33331 11.3536 8.47379 11.6928 8.72384 11.9428C8.97389 12.1929 9.31302 12.3333 9.66665 12.3333V16.3333C9.66665 16.6869 9.80712 17.0261 10.0572 17.2761C10.3072 17.5262 10.6464 17.6667 11 17.6667H12.3333C12.6869 17.6667 13.0261 17.5262 13.2761 17.2761C13.5262 17.0261 13.6666 16.6869 13.6666 16.3333C13.6666 15.9797 13.5262 15.6406 13.2761 15.3905C13.0261 15.1405 12.6869 15 12.3333 15V11C12.3333 10.6464 12.1928 10.3072 11.9428 10.0572C11.6927 9.80714 11.3536 9.66666 11 9.66666H9.66665Z" fill="#F8C058"/>
</svg>
