<svg width="22" height="22" viewBox="0 0 22 22" fill="none" xmlns="http://www.w3.org/2000/svg">
<path fill-rule="evenodd" clip-rule="evenodd" d="M21.6666 10.7564C21.6666 13.5535 20.5428 16.2359 18.5425 18.2137C16.5421 20.1915 13.829 21.3027 11 21.3027C8.171 21.3027 5.4579 20.1915 3.45751 18.2137C1.45712 16.2359 0.333313 13.5535 0.333313 10.7564C0.333313 7.95939 1.45712 5.27691 3.45751 3.29911C5.4579 1.32131 8.171 0.21019 11 0.21019C13.829 0.21019 16.5421 1.32131 18.5425 3.29911C20.5428 5.27691 21.6666 7.95939 21.6666 10.7564V10.7564ZM12.3333 5.48331C12.3333 5.83294 12.1928 6.16825 11.9428 6.41547C11.6927 6.6627 11.3536 6.80159 11 6.80159C10.6464 6.80159 10.3072 6.6627 10.0572 6.41547C9.80712 6.16825 9.66665 5.83294 9.66665 5.48331C9.66665 5.13368 9.80712 4.79837 10.0572 4.55114C10.3072 4.30392 10.6464 4.16503 11 4.16503C11.3536 4.16503 11.6927 4.30392 11.9428 4.55114C12.1928 4.79837 12.3333 5.13368 12.3333 5.48331ZM9.66665 9.43815C9.31302 9.43815 8.97389 9.57704 8.72384 9.82426C8.47379 10.0715 8.33331 10.4068 8.33331 10.7564C8.33331 11.1061 8.47379 11.4414 8.72384 11.6886C8.97389 11.9358 9.31302 12.0747 9.66665 12.0747V16.0295C9.66665 16.3792 9.80712 16.7145 10.0572 16.9617C10.3072 17.2089 10.6464 17.3478 11 17.3478H12.3333C12.6869 17.3478 13.0261 17.2089 13.2761 16.9617C13.5262 16.7145 13.6666 16.3792 13.6666 16.0295C13.6666 15.6799 13.5262 15.3446 13.2761 15.0974C13.0261 14.8502 12.6869 14.7113 12.3333 14.7113V10.7564C12.3333 10.4068 12.1928 10.0715 11.9428 9.82426C11.6927 9.57704 11.3536 9.43815 11 9.43815H9.66665Z" fill="#E0E0E0"/>
</svg>
