<svg width="22" height="22" viewBox="0 0 22 22" fill="none" xmlns="http://www.w3.org/2000/svg">
<path d="M11.9426 0.72403C11.6925 0.474069 11.3534 0.333649 10.9999 0.333649C10.6463 0.333649 10.3073 0.474069 10.0572 0.72403L0.723892 10.0574C0.481014 10.3088 0.346622 10.6456 0.34966 10.9952C0.352698 11.3448 0.492923 11.6792 0.740134 11.9265C0.987345 12.1737 1.32176 12.3139 1.67136 12.3169C2.02095 12.32 2.35776 12.1856 2.60923 11.9427L2.99989 11.552V20.3334C2.99989 20.687 3.14037 21.0261 3.39042 21.2762C3.64047 21.5262 3.9796 21.6667 4.33323 21.6667H6.99989C7.35351 21.6667 7.69265 21.5262 7.9427 21.2762C8.19275 21.0261 8.33323 20.687 8.33323 20.3334V17.6667C8.33323 17.3131 8.4737 16.9739 8.72375 16.7239C8.9738 16.4738 9.31294 16.3334 9.66656 16.3334H12.3332C12.6868 16.3334 13.026 16.4738 13.276 16.7239C13.5261 16.9739 13.6666 17.3131 13.6666 17.6667V20.3334C13.6666 20.687 13.807 21.0261 14.0571 21.2762C14.3071 21.5262 14.6463 21.6667 14.9999 21.6667H17.6666C18.0202 21.6667 18.3593 21.5262 18.6094 21.2762C18.8594 21.0261 18.9999 20.687 18.9999 20.3334V11.552L19.3906 11.9427C19.642 12.1856 19.9788 12.32 20.3284 12.3169C20.678 12.3139 21.0124 12.1737 21.2597 11.9265C21.5069 11.6792 21.6471 11.3448 21.6501 10.9952C21.6532 10.6456 21.5188 10.3088 21.2759 10.0574L11.9426 0.72403Z" fill="#F8C058"/>
</svg>
