<?xml version="1.0"?>
<svg xmlns="http://www.w3.org/2000/svg" xmlns:xlink="http://www.w3.org/1999/xlink" xmlns:svgjs="http://svgjs.com/svgjs" version="1.1" width="512" height="512" x="0" y="0" viewBox="0 0 512.001 512.001" style="enable-background:new 0 0 512 512" xml:space="preserve" class=""><circle r="256.0005" cx="256.0005" cy="256.0005" fill="#e91e63" shape="circle"/><g transform="matrix(0.7,0,0,0.7,76.80013275146484,76.80010528564455)"><g xmlns="http://www.w3.org/2000/svg"><path d="m151.034 328.834c0-30.713-24.987-55.7-55.7-55.7-73.894 3.06-73.873 108.352 0 111.4 30.714 0 55.7-24.987 55.7-55.7z" fill="#ffffff" data-original="#000000" style=""/><path d="m472.368 328.834c0-30.713-24.987-55.7-55.7-55.7-73.894 3.06-73.873 108.352 0 111.4 30.713 0 55.7-24.987 55.7-55.7z" fill="#ffffff" data-original="#000000" style=""/><path d="m311.701 328.834c0-30.713-24.987-55.7-55.7-55.7-73.894 3.06-73.873 108.352 0 111.4 30.713 0 55.7-24.987 55.7-55.7z" fill="#ffffff" data-original="#000000" style=""/><path d="m155.08 405.638c-61.089-50.046-155.452-5.423-155.079 74.23v17.132c0 8.284 6.716 15 15 15h118.247c-1.665-4.695-2.58-9.741-2.58-15v-17.133c0-27.76 9.078-53.436 24.412-74.229z" fill="#ffffff" data-original="#000000" style=""/><path d="m416.668 384.534c-22.602 0-43.388 7.912-59.746 21.104 15.335 20.793 24.412 46.469 24.412 74.229v17.133c0 5.258-.915 10.305-2.58 15h118.247c8.284 0 15-6.716 15-15v-17.133c0-52.567-42.766-95.333-95.333-95.333z" fill="#ffffff" data-original="#000000" style=""/><path d="m256.001 384.534c-52.567 0-95.333 42.767-95.333 95.333v17.133c0 8.284 6.716 15 15 15h160.667c8.284 0 15-6.716 15-15v-17.133c-.001-52.567-42.767-95.333-95.334-95.333z" fill="#ffffff" data-original="#000000" style=""/><path d="m138.075 4.394c-5.857-5.857-15.355-5.858-21.213 0s-5.858 15.355 0 21.213l16.066 16.067c5.859 5.859 15.356 5.856 21.213 0 5.858-5.858 5.858-15.355 0-21.213z" fill="#ffffff" data-original="#000000" style=""/><path d="m132.927 132.927-16.066 16.067c-5.857 5.858-5.857 15.355 0 21.213 5.86 5.859 15.357 5.856 21.213 0l16.066-16.067c5.857-5.858 5.857-15.355 0-21.213-5.858-5.858-15.354-5.858-21.213 0z" fill="#ffffff" data-original="#000000" style=""/><path d="m97.52 102.3h22.722c19.902-.793 19.887-29.215 0-30h-22.722c-19.902.793-19.887 29.215 0 30z" fill="#ffffff" data-original="#000000" style=""/><path d="m379.074 41.674 16.066-16.067c5.857-5.858 5.857-15.355 0-21.213-5.858-5.857-15.356-5.857-21.213 0l-16.067 16.067c-5.857 5.858-5.857 15.355 0 21.213 5.858 5.856 15.355 5.859 21.214 0z" fill="#ffffff" data-original="#000000" style=""/><path d="m373.927 170.207c5.856 5.856 15.353 5.86 21.213 0 5.858-5.858 5.858-15.355 0-21.213l-16.066-16.067c-5.858-5.858-15.355-5.858-21.213 0s-5.858 15.355 0 21.213z" fill="#ffffff" data-original="#000000" style=""/><path d="m376.76 87.3c0 8.284 6.716 15 15 15h22.722c19.902-.793 19.887-29.215 0-30h-22.722c-8.284 0-15 6.716-15 15z" fill="#ffffff" data-original="#000000" style=""/><path d="m208.868 191.734c2.597 62.544 91.694 62.496 94.267 0v-2.133h-94.267z" fill="#ffffff" data-original="#000000" style=""/><path d="m208.868 159.601h94.267c0-9.577 3.74-18.702 10.282-25.703 47.862-49.869 11.737-134.081-57.417-133.897-69.151-.184-105.28 84.039-57.415 133.897 6.542 7.001 10.283 16.126 10.283 25.703z" fill="#ffffff" data-original="#000000" style=""/></g></g></svg>
