<svg width="22" height="22" viewBox="0 0 22 22" fill="none" xmlns="http://www.w3.org/2000/svg">
<path fill-rule="evenodd" clip-rule="evenodd" d="M1.58665 6.21597C1.20311 6.45568 0.886849 6.789 0.667597 7.18459C0.448346 7.58017 0.333312 8.02502 0.333313 8.4773V19C0.333313 19.7072 0.614264 20.3855 1.11436 20.8856C1.61446 21.3857 2.29274 21.6666 2.99998 21.6666H19C19.7072 21.6666 20.3855 21.3857 20.8856 20.8856C21.3857 20.3855 21.6666 19.7072 21.6666 19V8.4773C21.6666 8.02502 21.5516 7.58017 21.3324 7.18459C21.1131 6.789 20.7968 6.45568 20.4133 6.21597L12.4133 1.21597C11.9895 0.951083 11.4998 0.810631 11 0.810631C10.5002 0.810631 10.0105 0.951083 9.58665 1.21597L1.58665 6.21597V6.21597ZM5.07331 9.44664C4.92763 9.34946 4.76424 9.28193 4.59246 9.24789C4.42068 9.21386 4.24388 9.214 4.07215 9.24829C3.90043 9.28259 3.73714 9.35037 3.59161 9.44778C3.44608 9.54518 3.32116 9.67029 3.22398 9.81597C3.1268 9.96165 3.05927 10.125 3.02524 10.2968C2.9912 10.4686 2.99134 10.6454 3.02564 10.8171C3.0949 11.1639 3.2991 11.469 3.59331 11.6653L10.26 16.1093C10.4791 16.2555 10.7366 16.3335 11 16.3335C11.2634 16.3335 11.5209 16.2555 11.74 16.1093L18.4066 11.6653C18.7009 11.469 18.9051 11.1639 18.9743 10.8171C19.0436 10.4703 18.9722 10.1102 18.776 9.81597C18.5797 9.52176 18.2746 9.31756 17.9278 9.24829C17.581 9.17903 17.2209 9.25038 16.9266 9.44664L11 13.3973L5.07331 9.44664Z" fill="#F8C058"/>
</svg>
