<?xml version="1.0" encoding="UTF-8"?>
<svg width="24px" height="24px" viewBox="0 0 24 24" version="1.1" xmlns="http://www.w3.org/2000/svg" xmlns:xlink="http://www.w3.org/1999/xlink">
    <!-- Generator: Sketch 61.2 (89653) - https://sketch.com -->
    <title>Icons/map-white</title>
    <desc>Created with Sketch.</desc>
    <g id="Icons/map" stroke="none" stroke-width="1" fill="none" fill-rule="evenodd">
        <path d="M22.5038611,1.13175686 C23.1705178,0.750810134 24,1.23217733 24,2 L24,2 L24,18 C24,18.3588568 23.8077139,18.6902003 23.4961389,18.8682431 L23.4961389,18.8682431 L16.4961389,22.8682431 C16.4877151,22.8730568 16.4792375,22.877739 16.4707093,22.8822898 C16.4500414,22.8935754 16.4283596,22.9041933 16.4062548,22.9140328 C16.3938812,22.9192663 16.38184,22.9243336 16.3697252,22.9291555 C16.3406577,22.9410127 16.3105864,22.9513706 16.279906,22.9602981 C16.2734921,22.961911 16.2674692,22.9636027 16.2614342,22.965237 C16.233994,22.9729037 16.2057021,22.9792581 16.1769855,22.9843866 C16.1617132,22.9869674 16.1463698,22.9893575 16.1309875,22.9913886 C16.114269,22.9936825 16.097601,22.9954393 16.0808162,22.9967817 C16.0575675,22.9986177 16.0341169,22.999693 16.0106542,22.9999434 L16,23 L16,23 L15.9674128,22.9994705 C15.9412711,22.9986196 15.9151488,22.9967433 15.8891079,22.99384 L16,23 C15.9413503,23 15.8838798,22.994951 15.8279996,22.9852639 C15.8125655,22.9824194 15.7969874,22.9793206 15.7814703,22.9758463 C15.7020466,22.9583476 15.626173,22.9311921 15.5551027,22.8958282 L15.5527864,22.8944272 L8.031,19.134 L1.49613894,22.8682431 C0.86281501,23.2301425 0.0825411537,22.8138036 0.00609707784,22.112953 L0.00609707784,22.112953 L0,22 L0,6 C0,5.64114315 0.192286064,5.30979971 0.503861062,5.13175686 L0.503861062,5.13175686 L7.50386106,1.13175686 C7.51228494,1.12694321 7.52076246,1.12226097 7.52929071,1.11771023 C7.5499586,1.10642456 7.57164044,1.09580673 7.59374519,1.08596722 C7.60611882,1.08073368 7.61815999,1.07566636 7.6302748,1.0708445 C7.65934231,1.05898725 7.68941362,1.04862936 7.72009403,1.03970188 C7.72650795,1.03808904 7.73253079,1.03639727 7.73856579,1.03476301 C7.76600598,1.02709629 7.79429795,1.02074192 7.82301454,1.01561336 C7.83828676,1.01303264 7.85363024,1.01064254 7.86901252,1.0086114 C7.88530437,1.00637319 7.90153929,1.00465155 7.91788537,1.00332302 C7.94209662,1.00138577 7.96621796,1.00027967 7.9903513,1.0000464 L8,1 L8,1 L8.03459809,1.00059694 C8.06006842,1.00147732 8.0855189,1.00333112 8.11089211,1.00615995 L8,1 C8.05864971,1 8.11612015,1.00504902 8.17200039,1.01473613 C8.18743454,1.01758056 8.20301262,1.02067942 8.21852966,1.02415366 C8.29795343,1.04165244 8.37382701,1.06880789 8.44489733,1.10417184 L8.4472136,1.10557281 L15.968,4.865 Z M9,3.61752235 L9,17.3815224 L15,20.3805224 L15,6.61752235 L9,3.61752235 Z M7,3.72252235 L2,6.58 L2,20.276 L7,17.4185224 L7,3.72252235 Z M22,3.723 L17,6.57952235 L17,20.2745224 L22,17.418 L22,3.723 Z" id="icon" fill="#FFFFFF"></path>
    </g>
</svg>