<svg width="16" height="24" viewBox="0 0 16 24" fill="none" xmlns="http://www.w3.org/2000/svg">
  <path fill-rule="evenodd" clip-rule="evenodd"
    d="M0 3C0 2.20435 0.280951 1.44129 0.781048 0.87868C1.28115 0.31607 1.95942 0 2.66667 0H8.78133C9.48852 0.000169912 10.1667 0.316352 10.6667 0.879L15.2187 6C15.7188 6.56248 15.9998 7.32542 16 8.121V21C16 21.7957 15.719 22.5587 15.219 23.1213C14.7189 23.6839 14.0406 24 13.3333 24H2.66667C1.95942 24 1.28115 23.6839 0.781048 23.1213C0.280951 22.5587 0 21.7957 0 21V3ZM2.66667 12C2.66667 11.6022 2.80714 11.2206 3.05719 10.9393C3.30724 10.658 3.64638 10.5 4 10.5H12C12.3536 10.5 12.6928 10.658 12.9428 10.9393C13.1929 11.2206 13.3333 11.6022 13.3333 12C13.3333 12.3978 13.1929 12.7794 12.9428 13.0607C12.6928 13.342 12.3536 13.5 12 13.5H4C3.64638 13.5 3.30724 13.342 3.05719 13.0607C2.80714 12.7794 2.66667 12.3978 2.66667 12ZM4 16.5C3.64638 16.5 3.30724 16.658 3.05719 16.9393C2.80714 17.2206 2.66667 17.6022 2.66667 18C2.66667 18.3978 2.80714 18.7794 3.05719 19.0607C3.30724 19.342 3.64638 19.5 4 19.5H12C12.3536 19.5 12.6928 19.342 12.9428 19.0607C13.1929 18.7794 13.3333 18.3978 13.3333 18C13.3333 17.6022 13.1929 17.2206 12.9428 16.9393C12.6928 16.658 12.3536 16.5 12 16.5H4Z"
    fill="#F8C058" />
</svg>