<svg width="16" height="16" viewBox="0 0 16 16" fill="none" xmlns="http://www.w3.org/2000/svg">
<path fill-rule="evenodd" clip-rule="evenodd" d="M16 0.999985C15.9999 0.829594 15.9563 0.662052 15.8733 0.513257C15.7902 0.364462 15.6706 0.239349 15.5256 0.149791C15.3806 0.060232 15.2152 0.0091982 15.045 0.00153168C14.8748 -0.00613485 14.7054 0.0298201 14.553 0.105985L6.763 3.99998H3C2.20435 3.99998 1.44129 4.31606 0.87868 4.87866C0.316071 5.44127 0 6.20434 0 6.99999C0 7.79563 0.316071 8.5587 0.87868 9.12131C1.44129 9.68391 2.20435 9.99998 3 9.99998H3.28L5.051 15.316C5.11735 15.5152 5.24472 15.6885 5.41505 15.8112C5.58538 15.934 5.79004 16 6 16H7C7.26522 16 7.51957 15.8946 7.70711 15.7071C7.89464 15.5196 8 15.2652 8 15V10.618L14.553 13.894C14.7054 13.9701 14.8748 14.0061 15.045 13.9984C15.2152 13.9908 15.3806 13.9397 15.5256 13.8502C15.6706 13.7606 15.7902 13.6355 15.8733 13.4867C15.9563 13.3379 15.9999 13.1704 16 13V0.999985Z" fill="#F8C058"/>
</svg>
