<?xml version="1.0" encoding="UTF-8"?>
<svg width="28px" height="36px" viewBox="0 0 28 36" version="1.1" xmlns="http://www.w3.org/2000/svg" xmlns:xlink="http://www.w3.org/1999/xlink">
    <title>Q</title>
    <g id="Page-1" stroke="none" stroke-width="1" fill="none" fill-rule="evenodd">
        <g id="Desktop-HD" transform="translate(-507.000000, -1186.000000)" fill="#574B8A" fill-rule="nonzero">
            <path d="M528.496,1221.258 L532.486,1218.256 C531.498,1217.42 530.516333,1216.50167 529.541,1215.501 C528.890778,1214.83389 528.316556,1214.10204 527.818333,1213.30544 L527.59,1212.927 L527.784651,1212.82726 L527.784651,1212.82726 L528.135,1212.632 C530.098333,1211.492 531.612,1209.88333 532.676,1207.806 C533.74,1205.72867 534.272,1203.27133 534.272,1200.434 C534.272,1197.622 533.74,1195.17733 532.676,1193.1 C531.612,1191.02267 530.098333,1189.42033 528.135,1188.293 C526.171667,1187.16567 523.834667,1186.602 521.124,1186.602 C518.413333,1186.602 516.07,1187.16567 514.094,1188.293 C512.118,1189.42033 510.591667,1191.02267 509.515,1193.1 C508.438333,1195.17733 507.9,1197.622 507.9,1200.434 C507.9,1203.27133 508.438333,1205.72867 509.515,1207.806 C510.591667,1209.88333 512.118,1211.492 514.094,1212.632 C516.07,1213.772 518.413333,1214.342 521.124,1214.342 C521.283451,1214.342 521.441609,1214.34003 521.598474,1214.33608 L522.06,1214.319 L522.261922,1214.65313 C522.880609,1215.65062 523.588359,1216.61963 524.385172,1217.56012 L524.791,1218.028 C525.893,1219.26933 527.128,1220.346 528.496,1221.258 L528.496,1221.258 Z M521.124,1209.744 C518.869333,1209.744 517.096,1208.95867 515.804,1207.388 C514.512,1205.81733 513.866,1203.49933 513.866,1200.434 C513.866,1197.394 514.512,1195.095 515.804,1193.537 C517.096,1191.979 518.869333,1191.2 521.124,1191.2 C523.353333,1191.2 525.120333,1191.979 526.425,1193.537 C527.729667,1195.095 528.382,1197.394 528.382,1200.434 C528.382,1203.474 527.729667,1205.78567 526.425,1207.369 C525.120333,1208.95233 523.353333,1209.744 521.124,1209.744 Z" id="Q"></path>
        </g>
    </g>
</svg>