<svg width="22" height="22" viewBox="0 0 22 22" fill="none" xmlns="http://www.w3.org/2000/svg">
<path fill-rule="evenodd" clip-rule="evenodd" d="M21.6667 11C21.6667 13.829 20.5429 16.5421 18.5425 18.5425C16.5421 20.5429 13.829 21.6667 11 21.6667C8.17103 21.6667 5.45793 20.5429 3.45754 18.5425C1.45715 16.5421 0.333344 13.829 0.333344 11C0.333344 8.17103 1.45715 5.45792 3.45754 3.45753C5.45793 1.45714 8.17103 0.333336 11 0.333336C13.829 0.333336 16.5421 1.45714 18.5425 3.45753C20.5429 5.45792 21.6667 8.17103 21.6667 11ZM11 7C10.7657 6.99977 10.5355 7.06127 10.3326 7.17831C10.1297 7.29535 9.96114 7.46379 9.84401 7.66667C9.75943 7.82384 9.64416 7.96242 9.50502 8.07422C9.36589 8.18601 9.20573 8.26873 9.03403 8.31747C8.86234 8.36621 8.6826 8.37999 8.50548 8.35798C8.32836 8.33598 8.15747 8.27863 8.00292 8.18935C7.84838 8.10007 7.71333 7.98067 7.60579 7.83823C7.49824 7.69578 7.42039 7.5332 7.37685 7.36011C7.3333 7.18703 7.32495 7.00696 7.35229 6.83058C7.37964 6.65421 7.44211 6.48512 7.53601 6.33334C7.9763 5.57082 8.65589 4.97488 9.46938 4.63795C10.2829 4.30102 11.1848 4.24192 12.0353 4.46981C12.8858 4.69771 13.6373 5.19986 14.1734 5.8984C14.7094 6.59694 15 7.45283 15 8.33334C15.0002 9.16082 14.7439 9.96804 14.2664 10.6438C13.7888 11.3196 13.1134 11.8307 12.3333 12.1067V12.3333C12.3333 12.687 12.1929 13.0261 11.9428 13.2761C11.6928 13.5262 11.3536 13.6667 11 13.6667C10.6464 13.6667 10.3072 13.5262 10.0572 13.2761C9.80715 13.0261 9.66668 12.687 9.66668 12.3333V11C9.66668 10.6464 9.80715 10.3072 10.0572 10.0572C10.3072 9.80715 10.6464 9.66667 11 9.66667C11.3536 9.66667 11.6928 9.52619 11.9428 9.27614C12.1929 9.0261 12.3333 8.68696 12.3333 8.33334C12.3333 7.97971 12.1929 7.64057 11.9428 7.39053C11.6928 7.14048 11.3536 7 11 7ZM11 17.6667C11.3536 17.6667 11.6928 17.5262 11.9428 17.2761C12.1929 17.0261 12.3333 16.687 12.3333 16.3333C12.3333 15.9797 12.1929 15.6406 11.9428 15.3905C11.6928 15.1405 11.3536 15 11 15C10.6464 15 10.3072 15.1405 10.0572 15.3905C9.80715 15.6406 9.66668 15.9797 9.66668 16.3333C9.66668 16.687 9.80715 17.0261 10.0572 17.2761C10.3072 17.5262 10.6464 17.6667 11 17.6667Z" fill="#F8C058"/>
</svg>
