<?xml version="1.0"?>
<svg xmlns="http://www.w3.org/2000/svg" xmlns:xlink="http://www.w3.org/1999/xlink" xmlns:svgjs="http://svgjs.com/svgjs" version="1.1" width="512" height="512" x="0" y="0" viewBox="0 0 512 512" style="enable-background:new 0 0 512 512" xml:space="preserve" class=""><circle r="256" cx="256" cy="256" fill="#e91e63" shape="circle"/><g transform="matrix(0.7,0,0,0.7,76.80002975463867,76.80007324218752)"><g xmlns="http://www.w3.org/2000/svg"><path d="m182.31 409.231c-5.829-17.485-22.125-29.231-40.555-29.231h-66.755c-24.813 0-45-20.187-45-45v-295h-15c-8.284 0-15 6.716-15 15v340c0 8.284 6.716 15 15 15h167.583c-.091-.256-.187-.51-.273-.769z" fill="#ffffff" data-original="#000000" style="" class=""/><path d="m210 25.911c-18.367-16.316-42.432-25.911-68.245-25.911h-66.755c-8.284 0-15 6.716-15 15v320c0 8.284 6.716 15 15 15h66.755c30.594 0 57.728 19.028 68.245 47.579z" fill="#ffffff" data-original="#000000" style="" class=""/><path d="m354.081 449.081c-25.375 0-49.231-9.882-67.175-27.825-17.943-17.942-27.825-41.799-27.825-67.175 0-25.375 9.882-49.231 27.825-67.175 37.041-37.041 97.309-37.041 134.35 0 17.943 17.943 27.825 41.8 27.825 67.175 0 25.376-9.882 49.232-27.825 67.175s-41.799 27.825-67.175 27.825z" fill="#ffffff" data-original="#000000" style="" class=""/><path d="m450 273.926v-218.926c0-8.284-6.716-15-15-15h-15v207.842c8.056 5.014 15.596 10.979 22.469 17.852 2.647 2.647 5.154 5.397 7.531 8.232z" fill="#ffffff" data-original="#000000" style="" class=""/><path d="m354.081 229.126c12.348 0 24.417 1.778 35.919 5.204v-219.33c0-8.284-6.716-15-15-15h-66.754c-25.813 0-49.879 9.595-68.246 25.912v276.928c6.144-13.662 14.783-26.236 25.693-37.146 23.581-23.582 54.971-36.568 88.388-36.568z" fill="#ffffff" data-original="#000000" style="" class=""/><path d="m501.765 452.268-38.047-38.047c-5.638 10.243-12.752 19.752-21.25 28.249-8.496 8.497-18.005 15.611-28.248 21.249l38.047 38.047c13.646 13.646 35.851 13.646 49.497 0 13.648-13.647 13.648-35.852.001-49.498z" fill="#ffffff" data-original="#000000" style="" class=""/></g></g></svg>
