<svg width="22" height="22" viewBox="0 0 22 22" fill="none" xmlns="http://www.w3.org/2000/svg">
<path fill-rule="evenodd" clip-rule="evenodd" d="M12.9863 1.89333C12.4796 -0.186672 9.51965 -0.186672 9.01298 1.89333C8.93734 2.20588 8.78896 2.49616 8.57994 2.74054C8.37092 2.98492 8.10715 3.1765 7.81011 3.29969C7.51306 3.42287 7.19112 3.47419 6.8705 3.44945C6.54987 3.42471 6.23962 3.32462 5.96498 3.15733C4.13565 2.04266 2.04231 4.13599 3.15698 5.96533C3.87698 7.14666 3.23831 8.68799 1.89431 9.01466C-0.18702 9.51999 -0.18702 12.4813 1.89431 12.9853C2.20695 13.0611 2.49728 13.2096 2.74166 13.4188C2.98604 13.6279 3.17756 13.8919 3.30063 14.1891C3.4237 14.4863 3.47483 14.8084 3.44987 15.1291C3.42491 15.4498 3.32455 15.7601 3.15698 16.0347C2.04231 17.864 4.13565 19.9573 5.96498 18.8427C6.23957 18.6751 6.54985 18.5747 6.87056 18.5498C7.19127 18.5248 7.51334 18.5759 7.81055 18.699C8.10776 18.8221 8.3717 19.0136 8.58088 19.258C8.79007 19.5024 8.93857 19.7927 9.01431 20.1053C9.51965 22.1867 12.481 22.1867 12.985 20.1053C13.061 19.7929 13.2096 19.5027 13.4189 19.2585C13.6281 19.0143 13.892 18.8229 14.1891 18.6999C14.4862 18.5768 14.8082 18.5256 15.1288 18.5505C15.4494 18.5753 15.7597 18.6754 16.0343 18.8427C17.8636 19.9573 19.957 17.864 18.8423 16.0347C18.675 15.76 18.5749 15.4498 18.5501 15.1291C18.5253 14.8085 18.5765 14.4866 18.6995 14.1894C18.8225 13.8923 19.0139 13.6284 19.2582 13.4192C19.5024 13.21 19.7925 13.0613 20.105 12.9853C22.1863 12.48 22.1863 9.51866 20.105 9.01466C19.7923 8.93892 19.502 8.79041 19.2576 8.58123C19.0133 8.37205 18.8217 8.10811 18.6987 7.8109C18.5756 7.51369 18.5245 7.19162 18.5494 6.87091C18.5744 6.5502 18.6747 6.23991 18.8423 5.96533C19.957 4.13599 17.8636 2.04266 16.0343 3.15733C15.7597 3.3249 15.4494 3.42526 15.1287 3.45022C14.808 3.47518 14.4859 3.42405 14.1887 3.30098C13.8915 3.17791 13.6276 2.98639 13.4184 2.74201C13.2092 2.49763 13.0607 2.2073 12.985 1.89466L12.9863 1.89333ZM10.9996 15C12.0605 15 13.0779 14.5786 13.8281 13.8284C14.5782 13.0783 14.9996 12.0609 14.9996 11C14.9996 9.93913 14.5782 8.92171 13.8281 8.17157C13.0779 7.42142 12.0605 7 10.9996 7C9.93878 7 8.92136 7.42142 8.17122 8.17157C7.42107 8.92171 6.99965 9.93913 6.99965 11C6.99965 12.0609 7.42107 13.0783 8.17122 13.8284C8.92136 14.5786 9.93878 15 10.9996 15Z" fill="#E0E0E0"/>
</svg>
