<svg width="23" height="24" viewBox="0 0 23 24" fill="none" xmlns="http://www.w3.org/2000/svg">
<path d="M10.459 0V12.6922H12.3757V0H10.459Z" fill="#F8C058"/>
<path d="M1.91736 13.121C1.91689 11.5018 2.37495 9.91202 3.24391 8.51698C4.11287 7.12194 5.361 5.97257 6.85852 5.18838L5.92894 3.60367C3.70662 4.76785 1.9543 6.59537 0.945561 8.80092C-0.0631814 11.0065 -0.271577 13.4659 0.352906 15.7953C0.977389 18.1247 2.3996 20.193 4.39752 21.6772C6.39544 23.1614 8.85662 23.978 11.3968 23.9996C13.937 24.0211 16.4133 23.2464 18.439 21.7964C20.4648 20.3463 21.926 18.3025 22.5946 15.9841C23.2631 13.6657 23.1014 11.2031 22.1347 8.98077C21.1679 6.75845 19.4506 4.90148 17.2507 3.69977L16.2904 5.26816C17.7475 6.06358 18.9576 7.20783 19.7991 8.58591C20.6405 9.96399 21.0837 11.5273 21.084 13.1188C21.0843 14.7103 20.6418 16.2737 19.8009 17.6521C18.96 19.0305 17.7503 20.1752 16.2936 20.9711C14.8368 21.7671 13.1842 22.1862 11.5019 22.1864C9.81958 22.1866 8.16687 21.7678 6.70987 20.9722C5.25287 20.1767 4.04293 19.0323 3.20167 17.6541C2.3604 16.2759 1.91746 14.7125 1.91736 13.121Z" fill="#F8C058"/>
</svg>
