<svg width="19" height="19" viewBox="0 0 19 19" fill="none" xmlns="http://www.w3.org/2000/svg">
<path d="M12.625 3.66666C12.625 4.62807 12.2958 5.55011 11.7097 6.22993C11.1237 6.90975 10.3288 7.29166 9.5 7.29166C8.6712 7.29166 7.87634 6.90975 7.29029 6.22993C6.70424 5.55011 6.375 4.62807 6.375 3.66666C6.375 2.70525 6.70424 1.78322 7.29029 1.1034C7.87634 0.423583 8.6712 0.0416641 9.5 0.0416641C10.3288 0.0416641 11.1237 0.423583 11.7097 1.1034C12.2958 1.78322 12.625 2.70525 12.625 3.66666ZM17.8333 6.08333C17.8333 6.72427 17.6138 7.33896 17.2231 7.79217C16.8324 8.24539 16.3025 8.5 15.75 8.5C15.1975 8.5 14.6676 8.24539 14.2769 7.79217C13.8862 7.33896 13.6667 6.72427 13.6667 6.08333C13.6667 5.44239 13.8862 4.8277 14.2769 4.37449C14.6676 3.92128 15.1975 3.66666 15.75 3.66666C16.3025 3.66666 16.8324 3.92128 17.2231 4.37449C17.6138 4.8277 17.8333 5.44239 17.8333 6.08333ZM13.6667 14.5417C13.6667 13.2598 13.2277 12.0304 12.4463 11.124C11.6649 10.2176 10.6051 9.70833 9.5 9.70833C8.39493 9.70833 7.33512 10.2176 6.55372 11.124C5.77232 12.0304 5.33333 13.2598 5.33333 14.5417V18.1667H13.6667V14.5417ZM5.33333 6.08333C5.33333 6.72427 5.11384 7.33896 4.72314 7.79217C4.33244 8.24539 3.80253 8.5 3.25 8.5C2.69747 8.5 2.16756 8.24539 1.77686 7.79217C1.38616 7.33896 1.16667 6.72427 1.16667 6.08333C1.16667 5.44239 1.38616 4.8277 1.77686 4.37449C2.16756 3.92128 2.69747 3.66666 3.25 3.66666C3.80253 3.66666 4.33244 3.92128 4.72314 4.37449C5.11384 4.8277 5.33333 5.44239 5.33333 6.08333ZM15.75 18.1667V14.5417C15.7515 13.3131 15.4826 12.1045 14.9687 11.0302C15.4306 10.8932 15.9133 10.8802 16.3801 10.9925C16.8468 11.1047 17.2854 11.3391 17.6622 11.6778C18.039 12.0165 18.3441 12.4506 18.5543 12.9469C18.7645 13.4432 18.8742 13.9887 18.875 14.5417V18.1667H15.75ZM4.03125 11.0302C3.51745 12.1045 3.24854 13.3131 3.25 14.5417V18.1667H0.125V14.5417C0.1248 13.9883 0.233816 13.4422 0.443695 12.9453C0.653574 12.4484 0.958744 12.0138 1.33582 11.6748C1.71289 11.3358 2.15186 11.1015 2.61907 10.9898C3.08629 10.8781 3.56936 10.8919 4.03125 11.0302Z" fill="#F8C058"/>
</svg>
