<svg width="16" height="22" viewBox="0 0 16 22" fill="none" xmlns="http://www.w3.org/2000/svg">
<path fill-rule="evenodd" clip-rule="evenodd" d="M0 2.99999C0 2.29275 0.280951 1.61447 0.781048 1.11438C1.28115 0.61428 1.95942 0.333328 2.66667 0.333328H8.78133C9.48852 0.333479 10.1667 0.61453 10.6667 1.11466L15.2187 5.66666C15.7188 6.16664 15.9998 6.84481 16 7.55199V19C16 19.7072 15.719 20.3855 15.219 20.8856C14.7189 21.3857 14.0406 21.6667 13.3333 21.6667H2.66667C1.95942 21.6667 1.28115 21.3857 0.781048 20.8856C0.280951 20.3855 0 19.7072 0 19V2.99999ZM2.66667 11C2.66667 10.6464 2.80714 10.3072 3.05719 10.0572C3.30724 9.80714 3.64638 9.66666 4 9.66666H12C12.3536 9.66666 12.6928 9.80714 12.9428 10.0572C13.1929 10.3072 13.3333 10.6464 13.3333 11C13.3333 11.3536 13.1929 11.6928 12.9428 11.9428C12.6928 12.1929 12.3536 12.3333 12 12.3333H4C3.64638 12.3333 3.30724 12.1929 3.05719 11.9428C2.80714 11.6928 2.66667 11.3536 2.66667 11ZM4 15C3.64638 15 3.30724 15.1405 3.05719 15.3905C2.80714 15.6406 2.66667 15.9797 2.66667 16.3333C2.66667 16.6869 2.80714 17.0261 3.05719 17.2761C3.30724 17.5262 3.64638 17.6667 4 17.6667H12C12.3536 17.6667 12.6928 17.5262 12.9428 17.2761C13.1929 17.0261 13.3333 16.6869 13.3333 16.3333C13.3333 15.9797 13.1929 15.6406 12.9428 15.3905C12.6928 15.1405 12.3536 15 12 15H4Z" fill="#F8C058"/>
</svg>
